<svg width="21" height="22" viewBox="0 0 21 22" fill="none" xmlns="http://www.w3.org/2000/svg">
<path d="M9.26988 4.31966L8.66068 3.30005C4.4431 6.38436 2.10001 10.1314 2.10001 13.2157C2.10001 16.1981 4.11507 17.6 5.82553 17.6C7.98118 17.6 9.50419 15.6118 9.50419 13.5216C9.50419 11.7628 8.47323 10.2589 7.0908 9.69809C6.69247 9.54515 6.31758 9.4177 6.31758 8.67848C6.31758 7.73534 6.95022 6.33338 9.26988 4.31966ZM18.572 4.31966L17.9628 3.30005C13.7921 6.38436 11.4021 10.1314 11.4021 13.2157C11.4021 16.1981 13.464 17.6 15.1745 17.6C17.3536 17.6 18.9 15.6118 18.9 13.5216C18.9 11.7628 17.8456 10.2589 16.4163 9.69809C16.018 9.54515 15.6665 9.4177 15.6665 8.67848C15.6665 7.73534 16.3226 6.33338 18.572 4.31966Z" fill="#E1E8F1"/>
</svg>
