<svg width="24" height="24" viewBox="0 0 24 24" fill="none" xmlns="http://www.w3.org/2000/svg">
<path d="M21.75 12C21.7451 14.382 20.8709 16.6804 19.2915 18.4636C17.712 20.2467 15.5359 21.392 13.1718 21.6843C13.1191 21.6895 13.0658 21.6837 13.0154 21.6673C12.965 21.6509 12.9185 21.6243 12.8789 21.5891C12.8393 21.5539 12.8074 21.5108 12.7852 21.4627C12.763 21.4145 12.751 21.3623 12.75 21.3093V14.25H15C15.1025 14.2502 15.204 14.2293 15.2982 14.1887C15.3924 14.1481 15.4773 14.0887 15.5476 14.014C15.6179 13.9393 15.6721 13.851 15.7069 13.7545C15.7417 13.658 15.7564 13.5554 15.75 13.4531C15.7334 13.2592 15.6438 13.0787 15.4994 12.9482C15.355 12.8177 15.1665 12.7469 14.9718 12.75H12.75V10.5C12.75 10.1021 12.908 9.72061 13.1893 9.4393C13.4706 9.158 13.8521 8.99996 14.25 8.99996H15.75C15.8525 9.00016 15.954 8.97932 16.0482 8.93874C16.1424 8.89815 16.2273 8.83867 16.2976 8.76399C16.3679 8.6893 16.4221 8.60099 16.4569 8.50451C16.4917 8.40804 16.5064 8.30545 16.5 8.20309C16.4834 8.00915 16.3938 7.82873 16.2494 7.69823C16.105 7.56774 15.9165 7.49688 15.7218 7.49996H14.25C13.4543 7.49996 12.6913 7.81603 12.1287 8.37864C11.566 8.94125 11.25 9.70431 11.25 10.5V12.75H8.99997C8.89741 12.7498 8.79589 12.7706 8.7017 12.8112C8.60751 12.8518 8.52265 12.9113 8.45235 12.9859C8.38206 13.0606 8.32783 13.1489 8.29302 13.2454C8.25821 13.3419 8.24356 13.4445 8.24997 13.5468C8.26656 13.7408 8.3561 13.9212 8.50052 14.0517C8.64494 14.1822 8.83348 14.253 9.0281 14.25H11.25V21.3093C11.2502 21.3619 11.2394 21.4139 11.2183 21.4621C11.1972 21.5102 11.1661 21.5533 11.1272 21.5887C11.0883 21.6241 11.0424 21.6508 10.9925 21.6673C10.9426 21.6838 10.8898 21.6896 10.8375 21.6843C5.88747 21.0843 2.06247 16.7812 2.25935 11.6343C2.36986 9.09257 3.46952 6.69468 5.3236 4.9525C7.17767 3.21032 9.63929 2.26186 12.183 2.30958C14.7267 2.3573 17.151 3.39741 18.9385 5.2079C20.7259 7.01839 21.7349 9.45584 21.75 12V12Z" fill="white"/>
</svg>
